# This file uses centimeters as units for non-parametric coordinates.

mtllib coin.mtl
g default
v 4.440598 4.307387 -0.063872
v 4.515572 5.737978 -0.063872
v 4.144799 7.121719 -0.063872
v 3.364575 8.323159 -0.063872
v 2.251273 9.224694 -0.063872
v 0.913867 9.738076 -0.063872
v -0.516723 9.813050 -0.063872
v -1.900463 9.442276 -0.063872
v -3.101903 8.662052 -0.063872
v -4.003438 7.548749 -0.063872
v -4.516819 6.211346 -0.063872
v -4.591794 4.780756 -0.063872
v -4.221020 3.397016 -0.063872
v -3.440796 2.195575 -0.063872
v -2.327493 1.294041 -0.063872
v -0.990090 0.780660 -0.063872
v 0.440500 0.705686 -0.063872
v 1.824240 1.076458 -0.063872
v 3.025680 1.856682 -0.063872
v 3.927215 2.969985 -0.063872
v 4.440598 4.307387 0.885785
v 4.515572 5.737978 0.885785
v 4.144799 7.121719 0.885785
v 3.364575 8.323159 0.885785
v 2.251273 9.224694 0.885785
v 0.913867 9.738076 0.885785
v -0.516723 9.813050 0.885785
v -1.900463 9.442276 0.885785
v -3.101903 8.662052 0.885785
v -4.003438 7.548749 0.885785
v -4.516819 6.211346 0.885785
v -4.591794 4.780756 0.885785
v -4.221020 3.397016 0.885785
v -3.440796 2.195575 0.885785
v -2.327493 1.294041 0.885785
v -0.990090 0.780660 0.885785
v 0.440500 0.705686 0.885785
v 1.824240 1.076458 0.885785
v 3.025680 1.856682 0.885785
v 3.927215 2.969985 0.885785
vt 0.200926 0.650366
vt 0.200926 0.688238
vt 0.018292 0.688235
vt 0.018292 0.650364
vt 0.652185 0.827764
vt 0.578146 0.850436
vt 0.683380 0.869386
vt 0.550156 0.894278
vt 0.725911 0.899331
vt 0.509988 0.927324
vt 0.775613 0.914668
vt 0.461574 0.946341
vt 0.827622 0.913895
vt 0.409653 0.949466
vt 0.876847 0.897089
vt 0.359308 0.936393
vt 0.918469 0.865893
vt 0.315466 0.908403
vt 0.948414 0.823363
vt 0.282420 0.868235
vt 0.200930 0.271651
vt 0.018295 0.271648
vt 0.200929 0.309522
vt 0.018295 0.309520
vt 0.946171 0.672427
vt 0.273351 0.717555
vt 0.914976 0.630805
vt 0.301341 0.673713
vt 0.872446 0.600860
vt 0.341509 0.640667
vt 0.822743 0.585523
vt 0.389923 0.621651
vt 0.770734 0.586296
vt 0.441844 0.618526
vt 0.721510 0.603103
vt 0.492189 0.631598
vt 0.679888 0.634298
vt 0.536030 0.659588
vt 0.649943 0.676828
vt 0.569077 0.699756
vt 0.018292 0.612492
vt 0.588093 0.748170
vt 0.018293 0.574620
vt 0.018293 0.536749
vt 0.018293 0.498877
vt 0.018294 0.461006
vt 0.018294 0.423134
vt 0.018294 0.385263
vt 0.018295 0.347391
vt 0.260278 0.767900
vt 0.263403 0.819821
vt 0.018295 0.233777
vt 0.018289 0.953336
vt 0.018290 0.915465
vt 0.018290 0.877593
vt 0.018290 0.839722
vt 0.018291 0.801850
vt 0.018291 0.763978
vt 0.018291 0.726107
vt 0.591218 0.800091
vt 0.200927 0.612495
vt 0.634606 0.726531
vt 0.200927 0.574623
vt 0.200927 0.536752
vt 0.200928 0.498880
vt 0.200928 0.461009
vt 0.200928 0.423137
vt 0.200929 0.385265
vt 0.200929 0.347394
vt 0.962978 0.721652
vt 0.963751 0.773661
vt 0.200924 0.991210
vt 0.200924 0.953339
vt 0.200924 0.915467
vt 0.200924 0.877596
vt 0.200925 0.839724
vt 0.200925 0.801853
vt 0.200925 0.763981
vt 0.200926 0.726110
vt 0.635378 0.778540
vt 0.200930 0.233779
vt 0.018289 0.991208
vn 0.978147 -0.207912 -0.000000
vn 0.994522 0.104529 -0.000000
vn 0.994522 0.104529 -0.000000
vn 0.978147 -0.207912 -0.000000
vn 0.913545 0.406737 -0.000000
vn 0.913545 0.406737 -0.000000
vn 0.743145 0.669131 -0.000000
vn 0.743145 0.669131 -0.000000
vn 0.500000 0.866026 -0.000000
vn 0.500000 0.866026 -0.000000
vn 0.207912 0.978148 -0.000000
vn 0.207912 0.978148 -0.000000
vn -0.104529 0.994522 -0.000000
vn -0.104529 0.994522 -0.000000
vn -0.406737 0.913545 -0.000000
vn -0.406737 0.913545 -0.000000
vn -0.669131 0.743145 -0.000000
vn -0.669131 0.743145 -0.000000
vn -0.866025 0.500000 -0.000000
vn -0.866025 0.500000 -0.000000
vn -0.978148 0.207912 0.000000
vn -0.978148 0.207912 0.000000
vn -0.994522 -0.104529 0.000000
vn -0.994522 -0.104529 0.000000
vn -0.913545 -0.406737 0.000000
vn -0.913545 -0.406737 0.000000
vn -0.743145 -0.669131 0.000000
vn -0.743145 -0.669131 0.000000
vn -0.500000 -0.866026 0.000000
vn -0.500000 -0.866026 0.000000
vn -0.207912 -0.978148 0.000000
vn -0.207912 -0.978148 0.000000
vn 0.104529 -0.994522 0.000000
vn 0.104529 -0.994522 0.000000
vn 0.406737 -0.913545 0.000000
vn 0.406737 -0.913545 0.000000
vn 0.669131 -0.743145 0.000000
vn 0.669131 -0.743145 0.000000
vn 0.866025 -0.500001 0.000000
vn 0.866025 -0.500001 0.000000
vn 0.000000 0.000000 1.000000
vn 0.000000 0.000000 1.000000
vn 0.000000 0.000000 1.000000
vn 0.000000 0.000000 1.000000
vn 0.000000 0.000000 1.000000
vn 0.000000 0.000000 1.000000
vn 0.000000 0.000000 1.000000
vn 0.000000 0.000000 1.000000
vn -0.000000 -0.000000 1.000000
vn -0.000000 -0.000000 1.000000
vn -0.000000 -0.000000 1.000000
vn -0.000000 -0.000000 1.000000
vn 0.000000 0.000000 1.000000
vn 0.000000 0.000000 1.000000
vn 0.000000 0.000000 1.000000
vn 0.000000 0.000000 1.000000
vn -0.000000 -0.000000 1.000000
vn -0.000000 -0.000000 1.000000
vn -0.000000 -0.000000 1.000000
vn -0.000000 -0.000000 1.000000
vn -0.000000 -0.000000 1.000000
vn -0.000000 -0.000000 1.000000
vn -0.000000 -0.000000 1.000000
vn -0.000000 -0.000000 1.000000
vn 0.000000 0.000000 1.000000
vn 0.000000 0.000000 1.000000
vn 0.000000 0.000000 1.000000
vn 0.000000 0.000000 1.000000
vn 0.000000 0.000000 1.000000
vn 0.000000 0.000000 1.000000
vn 0.000000 0.000000 1.000000
vn 0.000000 0.000000 1.000000
vn 0.000000 0.000000 1.000000
vn 0.000000 0.000000 1.000000
vn 0.000000 0.000000 1.000000
vn 0.000000 0.000000 1.000000
vn 0.000000 0.000000 -1.000000
vn 0.000000 0.000000 -1.000000
vn 0.000000 0.000000 -1.000000
vn 0.000000 0.000000 -1.000000
vn 0.000000 0.000000 -1.000000
vn 0.000000 0.000000 -1.000000
vn 0.000000 0.000000 -1.000000
vn 0.000000 0.000000 -1.000000
vn -0.000000 -0.000000 -1.000000
vn -0.000000 -0.000000 -1.000000
vn -0.000000 -0.000000 -1.000000
vn -0.000000 -0.000000 -1.000000
vn -0.000000 -0.000000 -1.000000
vn -0.000000 -0.000000 -1.000000
vn -0.000000 -0.000000 -1.000000
vn -0.000000 -0.000000 -1.000000
vn -0.000000 -0.000000 -1.000000
vn -0.000000 -0.000000 -1.000000
vn -0.000000 -0.000000 -1.000000
vn -0.000000 -0.000000 -1.000000
vn -0.000000 -0.000000 -1.000000
vn -0.000000 -0.000000 -1.000000
vn -0.000000 -0.000000 -1.000000
vn -0.000000 -0.000000 -1.000000
vn -0.000000 -0.000000 -1.000000
vn -0.000000 -0.000000 -1.000000
vn -0.000000 -0.000000 -1.000000
vn -0.000000 -0.000000 -1.000000
vn -0.000000 -0.000000 -1.000000
vn -0.000000 -0.000000 -1.000000
vn -0.000000 -0.000000 -1.000000
vn -0.000000 -0.000000 -1.000000
vn -0.000000 -0.000000 -1.000000
vn -0.000000 -0.000000 -1.000000
vn -0.000000 -0.000000 -1.000000
vn -0.000000 -0.000000 -1.000000
s 1
g coin
usemtl lambert3SG
f 1/1/1 2/2/2 22/3/3 21/4/4
f 2/2/2 3/79/5 23/59/6 22/3/3
f 3/79/5 4/78/7 24/58/8 23/59/6
f 4/78/7 5/77/9 25/57/10 24/58/8
f 5/77/9 6/76/11 26/56/12 25/57/10
f 6/76/11 7/75/13 27/55/14 26/56/12
f 7/75/13 8/74/15 28/54/16 27/55/14
f 8/74/15 9/73/17 29/53/18 28/54/16
f 9/73/17 10/72/19 30/82/20 29/53/18
f 10/81/19 11/21/21 31/22/22 30/52/20
f 11/21/21 12/23/23 32/24/24 31/22/22
f 12/23/23 13/69/25 33/49/26 32/24/24
f 13/69/25 14/68/27 34/48/28 33/49/26
f 14/68/27 15/67/29 35/47/30 34/48/28
f 15/67/29 16/66/31 36/46/32 35/47/30
f 16/66/31 17/65/33 37/45/34 36/46/32
f 17/65/33 18/64/35 38/44/36 37/45/34
f 18/64/35 19/63/37 39/43/38 38/44/36
f 19/63/37 20/61/39 40/41/40 39/43/38
f 20/61/39 1/1/1 21/4/4 40/41/40
s off
f 26/12/41 27/14/42 36/32/43 37/34/44
f 27/14/45 28/16/46 35/30/47 36/32/48
f 28/16/49 29/18/50 34/28/51 35/30/52
f 29/18/53 30/20/54 33/26/55 34/28/56
f 30/20/57 31/51/58 32/50/59 33/26/60
f 25/10/61 26/12/62 37/34/63 38/36/64
f 24/8/65 25/10/66 38/36/67 39/38/68
f 23/6/69 24/8/70 39/38/71 40/40/72
f 22/60/73 23/6/74 40/40/75 21/42/76
f 7/13/77 6/11/78 17/33/79 16/31/80
f 8/15/81 7/13/82 16/31/83 15/29/84
f 9/17/85 8/15/86 15/29/87 14/27/88
f 10/19/89 9/17/90 14/27/91 13/25/92
f 11/71/93 10/19/94 13/25/95 12/70/96
f 6/11/97 5/9/98 18/35/99 17/33/100
f 5/9/101 4/7/102 19/37/103 18/35/104
f 4/7/105 3/5/106 20/39/107 19/37/108
f 3/5/109 2/80/110 1/62/111 20/39/112
